<svg height="500pt" preserveAspectRatio="xMidYMid meet" viewBox="0 0 500 500" width="500pt" xmlns="../../www.w3.org/2000/svg.html"><path d="m3252 4830c-71-23-129-67-170-125-60-88-59-71-58-862 1-398-2-723-5-723-4 0-12 14-19 30-7 17-31 49-54 73-120 121-310 136-439 35-23-18-45-38-50-45-4-6-13-18-20-25-18-19-45-80-56-124l-8-39-12 30c-54 139-164 224-298 231-157 7-286-79-339-230-11-29-15-80-15-171l1-130-22 45c-30 60-104 132-164 160-89 42-253 30-321-23-50-38-99-98-122-146l-26-56-2-310c-1-170-4-323-8-340-9-44-19-242-19-380 0-362 50-643 156-875 75-163 166-274 322-391 57-43 198-128 221-134 6-1 30-11 55-22 65-29 162-60 260-82 82-19 102-23 220-37 62-7 270-8 315 0 17 2 55 7 85 11 151 18 385 94 527 171 364 196 638 522 729 865 46 178 59 270 59 439 0 136-8 221-25 266-6 16-11 30-11 32 7 18-56 159-84 190-57 62-93 94-122 107-18 9-35 19-37 24-3 5-6 528-7 1162 0 1123-1 1155-20 1205-33 87-118 170-201 195-60 19-159 18-216-1z" transform="matrix(.1 0 0 -.1 0 500)"/></svg>